<!DOCTYPE svg PUBLIC "-//W3C//DTD SVG 1.1//EN" "http://www.w3.org/Graphics/SVG/1.1/DTD/svg11.dtd">
<svg xmlns="http://www.w3.org/2000/svg" viewBox="0 0 280 349">
<path d="M126.66.979C83.141 8.898 53.728 43.589 53.728 87c0 62.286 62.322 103.852 119.821 79.915 62.492-26.015 71.773-112.878 16.142-151.08C171.876 3.601 145.9-2.521 126.66.979m4.84 34.089c-24.538 3.646-43.452 26.263-43.488 52-.064 46.387 56.003 69.597 88.828 36.772 35.632-35.632 4.694-96.206-45.34-88.772M69 193.529c-48.973 10.624-78.894 50.367-65.565 87.087 9.681 26.671 42.958 51.206 83.065 61.242 30.948 7.745 76.278 7.75 107 .013 27.676-6.97 47.417-17.676 65.097-35.304C271.29 293.913 279 280.477 279 271.014c0-1.593.45-3.174 1-3.514.55-.34 1-2.868 1-5.618 0-2.75-.389-4.76-.864-4.466-.475.293-1.121-1.644-1.437-4.306-2.858-24.139-29.085-49.092-61.199-58.228-7.92-2.253-8.667-2.279-75-2.52-54.613-.198-68.202.018-73.5 1.167m5 34.026c-20.93 4.495-39 20.851-39 35.301 0 15.624 23.795 35.139 53.621 43.975 29.349 8.695 73.409 8.695 102.758 0C221.205 297.995 245 278.48 245 262.856c0-14.628-18.173-30.894-39.5-35.357-9.989-2.09-121.729-2.042-131.5.056M.3 263c0 3.025.187 4.262.416 2.75.229-1.512.229-3.988 0-5.5S.3 259.975.3 263" fill-rule="evenodd"/>
</svg>