<?xml version="1.0" standalone="no"?>
<!DOCTYPE svg PUBLIC "-//W3C//DTD SVG 20010904//EN"
 "http://www.w3.org/TR/2001/REC-SVG-20010904/DTD/svg10.dtd">
<svg version="1.0" xmlns="http://www.w3.org/2000/svg"
 width="514.000000pt" height="295.000000pt" viewBox="0 0 514.000000 295.000000"
 preserveAspectRatio="xMidYMid meet">

<g transform="translate(0.000000,295.000000) scale(0.100000,-0.100000)"
fill="#000000" stroke="none">
<path d="M323 2910 c-116 -24 -223 -112 -263 -217 -30 -79 -30 -178 0 -258 22
-58 62 -99 1168 -1207 1231 -1233 1172 -1178 1295 -1198 65 -10 143 2 205 31
36 18 296 271 1155 1128 610 608 1128 1132 1152 1164 55 72 70 120 69 217 -1
259 -271 421 -505 305 -44 -22 -233 -205 -1034 -1006 -539 -538 -984 -982
-988 -986 -4 -4 -456 441 -1005 988 -1084 1083 -1025 1030 -1152 1042 -30 3
-74 1 -97 -3z"/>
</g>
</svg>
