<!DOCTYPE svg PUBLIC "-//W3C//DTD SVG 1.1//EN" "http://www.w3.org/Graphics/SVG/1.1/DTD/svg11.dtd">
<svg xmlns="http://www.w3.org/2000/svg" viewBox="0 0 540 541">
<path d="M259.153 2.75c-4.159 2.253-153.699 135.854-237.911 212.553C4.402 230.641 1.447 234.458.378 242.257c-2.559 18.671 19.084 33.603 35.28 24.341 2.286-1.307 55.71-48.777 118.719-105.488C217.386 104.4 269.451 58 270.077 58c1.021 0 9.397 7.35 39.923 35.035 82.502 74.822 191.907 172.387 195.178 174.056 12.441 6.347 31-1.862 33.424-14.784.344-1.831 1.024-3.576 1.511-3.877.488-.301.887-2.348.887-4.548s-.395-3.756-.878-3.457c-.483.298-1.141-.688-1.461-2.191-1.323-6.201-5.765-10.65-51.21-51.28-20.227-18.085-160.288-144.151-183.22-164.913C283.304 3.093 278.5 0 270 0c-4.399 0-6.979.654-10.847 2.75M.272 245c0 2.475.195 3.488.434 2.25.238-1.238.238-3.262 0-4.5-.239-1.238-.434-.225-.434 2.25M63.5 296.869c-5.56 2.537-11.189 8.679-13.029 14.218-2.497 7.517-1.669 161.765.914 170.377 8.541 28.473 29.62 49.086 57.404 56.134l9.467 2.402h303.488l9.467-2.402c27.77-7.044 48.868-27.675 57.404-56.134 2.583-8.612 3.411-162.86.914-170.377-6.604-19.883-34.723-21.596-44.813-2.73L442.5 312.5 442 391l-.5 78.5-2.329 4.728c-2.974 6.039-10.852 13.135-16.855 15.18-7.128 2.429-297.504 2.429-304.632 0-6.003-2.045-13.881-9.141-16.855-15.18L98.5 469.5 98 391c-.497-78.05-.512-78.523-2.658-82.5-6.168-11.429-20.672-16.727-31.842-11.631" fill-rule="evenodd"/>
</svg>