<?xml version="1.0" standalone="no"?>
<!DOCTYPE svg PUBLIC "-//W3C//DTD SVG 20010904//EN"
 "http://www.w3.org/TR/2001/REC-SVG-20010904/DTD/svg10.dtd">
<svg version="1.0" xmlns="http://www.w3.org/2000/svg"
 width="448.000000pt" height="446.000000pt" viewBox="0 0 448.000000 446.000000"
 preserveAspectRatio="xMidYMid meet">

<g transform="translate(0.000000,446.000000) scale(0.100000,-0.100000)"
fill="#000000" stroke="none">
<path d="M855 4419 c-148 -7 -199 -17 -299 -61 -108 -46 -197 -110 -282 -201
-61 -66 -86 -104 -129 -192 -98 -203 -89 -42 -93 -1695 -4 -1564 -5 -1526 49
-1673 79 -218 222 -378 420 -471 186 -88 29 -80 1679 -84 1037 -2 1483 0 1525
8 207 38 391 143 514 293 66 80 146 239 174 347 l22 85 0 1460 0 1460 -23 78
c-63 217 -186 395 -352 507 -80 54 -214 113 -295 129 -65 12 -2657 22 -2910
10z m2820 -329 c188 -27 361 -180 412 -364 11 -42 15 -229 19 -1036 3 -559 2
-1002 -3 -1025 l-9 -40 -190 186 c-241 236 -303 269 -493 269 -85 -1 -141 -14
-221 -53 -55 -27 -101 -68 -294 -259 -259 -258 -269 -265 -371 -237 -34 9
-102 72 -435 404 -239 238 -414 403 -443 420 -110 63 -270 84 -388 49 -123
-36 -150 -59 -521 -428 l-353 -351 -8 570 c-11 807 -4 1452 18 1529 53 196
218 339 420 366 90 11 2776 12 2860 0z m-2217 -2005 c25 -11 162 -141 422
-399 212 -211 408 -398 435 -415 157 -99 389 -94 542 10 26 18 147 131 268
250 199 196 224 217 262 224 47 7 98 -1 127 -21 10 -7 149 -142 309 -301 l290
-288 -6 -180 c-5 -196 -22 -270 -81 -363 -55 -87 -155 -168 -254 -206 l-57
-21 -1460 -3 c-1429 -2 -1461 -2 -1525 17 -163 50 -298 197 -341 371 -8 34
-13 118 -14 222 l0 168 455 456 c304 304 468 462 495 475 49 23 84 24 133 4z"/>
<path d="M2846 3554 c-93 -22 -186 -78 -258 -152 -76 -79 -111 -136 -145 -235
-31 -91 -35 -231 -9 -322 94 -322 424 -508 731 -411 144 45 248 123 325 241
68 104 84 162 84 305 1 155 -20 233 -95 345 -79 117 -187 192 -334 230 -73 19
-219 18 -299 -1z m277 -333 c56 -27 110 -94 128 -159 26 -94 -10 -207 -87
-270 -91 -75 -244 -70 -341 12 -75 64 -101 202 -54 298 26 55 95 120 143 136
54 18 156 10 211 -17z"/>
</g>
</svg>
