<!DOCTYPE svg PUBLIC "-//W3C//DTD SVG 1.1//EN" "http://www.w3.org/Graphics/SVG/1.1/DTD/svg11.dtd">
<svg xmlns="http://www.w3.org/2000/svg" viewBox="0 0 1154 1149">
<path d="M873.5 1.001c-16.852 1.48-42.29 10.047-52.183 17.577-1.751 1.332-3.458 2.422-3.793 2.422C814.143 21 670 162.166 670 165.477 670 166.824 984.191 481 985.538 481c.57 0 31.867-30.937 69.551-68.75 72.845-73.096 74.6-75.061 83.229-93.25 8.407-17.718 11.937-33.699 11.931-54-.01-29.748-7.929-53.192-26.178-77.5-4.434-5.905-141.155-143.464-154.325-155.27C943.724 8.903 909.604-2.168 873.5 1.001M332.907 501.75C157.852 676.908 53.435 782.102 50.218 786.544c-14.913 20.59-21.973 41.273-25.195 73.806-.498 5.033-1.602 15-2.454 22.15-.852 7.15-1.979 17.05-2.505 22-.527 4.95-1.668 14.85-2.536 22-.868 7.15-1.991 17.05-2.494 22-.504 4.95-1.613 14.85-2.465 22a2948.23 2948.23 0 0 0-2.535 22 2750.45 2750.45 0 0 1-2.545 22c-5.808 48.431-1.924 69.477 17.278 93.62 25.142 31.612 57.12 41.528 111.233 34.493 11.935-1.552 19.818-2.475 43.5-5.095 23.738-2.626 30.539-3.393 44-4.961 7.15-.834 19.3-2.22 27-3.08 7.7-.861 17.15-1.978 21-2.481 3.85-.504 11.95-1.41 18-2.014 35.26-3.52 55.199-10.452 77.166-26.825 8.088-6.029 559.545-556.931 560.134-559.57.165-.74-.332-1.961-1.103-2.716-.772-.754-71.455-71.233-157.072-156.621C683.007 293.862 612.403 224 611.726 224c-.677 0-126.145 124.988-278.819 277.75" fill-rule="evenodd"/>
</svg>