<!DOCTYPE svg PUBLIC "-//W3C//DTD SVG 1.1//EN" "http://www.w3.org/Graphics/SVG/1.1/DTD/svg11.dtd">
<svg xmlns="http://www.w3.org/2000/svg" viewBox="0 0 396 396">
<path d="M147 1.569C37.907 15.536-25.049 133.018 24.032 231.042c42.35 84.582 149.199 114.163 228.737 63.326 2.899-1.852 5.422-3.368 5.608-3.368.186 0 21.632 22.163 47.658 49.25 26.026 27.088 49.052 50.45 51.169 51.917 17.148 11.881 39.042-8.125 29.14-26.628-1.014-1.896-23.338-25.785-49.608-53.087l-47.765-49.641 2.049-2.656c24.269-31.459 34.36-60.808 34.438-100.155.046-23.647-1.224-32.186-7.657-51.475C294.114 37.497 221.508-7.97 147 1.569m10 40.586c-99.514 6.856-144.673 130.539-73.532 201.39 62.074 61.821 167.666 36.789 195.52-46.35C305.824 117.094 242.239 36.281 157 42.155" fill-rule="evenodd"/>
</svg>