<!DOCTYPE svg PUBLIC "-//W3C//DTD SVG 1.1//EN" "http://www.w3.org/Graphics/SVG/1.1/DTD/svg11.dtd">
<svg xmlns="http://www.w3.org/2000/svg" viewBox="0 0 348 244">
<path d="M11.619 1.028C-3.11 5.47-2.769 29.764 12.083 34.024c4.773 1.369 319.15 1.317 324.085-.054 4.192-1.164 9.524-6.682 10.378-10.738.316-1.503.998-3.513 1.514-4.468 1.233-2.279 1.201-4.043-.06-3.264-.561.347-1-.44-1-1.793 0-2.953-3.522-8.298-7.323-11.115L336.854.5 175.677.33C86.779.236 13.208.549 11.619 1.028M.079 17.583c.048 1.165.285 1.402.604.605.289-.722.253-1.585-.079-1.917-.332-.332-.568.258-.525 1.312m9.139 89.08c-11.484 5.66-11.38 25.236.163 30.714 5.247 2.49 323.991 2.49 329.238 0 4.196-1.992 7.315-6.198 8.077-10.892.316-1.943.963-3.774 1.439-4.068.476-.294.858-1.296.85-2.226-.012-1.301-.21-1.385-.857-.364-.577.91-1.024.199-1.423-2.259-.77-4.744-3.875-8.946-8.086-10.945-5.236-2.484-324.358-2.446-329.401.04m-9.139 14.92c.048 1.165.285 1.402.604.605.289-.722.253-1.585-.079-1.917-.332-.332-.568.258-.525 1.312m11.54 88.445c-14.729 4.442-14.388 28.736.464 32.996 4.773 1.369 319.15 1.317 324.085-.054 4.192-1.164 9.524-6.682 10.378-10.738.316-1.503.998-3.513 1.514-4.468 1.233-2.279 1.201-4.043-.06-3.264-.561.347-1-.44-1-1.793 0-2.953-3.522-8.298-7.323-11.115l-2.823-2.092-161.177-.17c-88.898-.094-162.469.219-164.058.698M.079 226.583c.048 1.165.285 1.402.604.605.289-.722.253-1.585-.079-1.917-.332-.332-.568.258-.525 1.312" fill-rule="evenodd"/>
</svg>